<svg width="25" height="25" viewBox="0 0 25 25" fill="none" xmlns="http://www.w3.org/2000/svg">
                <path d="M6.94444 0C3.10972 0 0 3.10972 0 6.94444L0 18.0556C0 21.8903 3.10972 25 6.94444 25H18.0556C21.8903 25 25 21.8903 25 18.0556V6.94444C25 3.10972 21.8903 0 18.0556 0L6.94444 0ZM20.8333 2.77778C21.6 2.77778 22.2222 3.4 22.2222 4.16667C22.2222 4.93333 21.6 5.55556 20.8333 5.55556C20.0667 5.55556 19.4444 4.93333 19.4444 4.16667C19.4444 3.4 20.0667 2.77778 20.8333 2.77778ZM12.5 5.55556C16.3347 5.55556 19.4444 8.66528 19.4444 12.5C19.4444 16.3347 16.3347 19.4444 12.5 19.4444C8.66528 19.4444 5.55556 16.3347 5.55556 12.5C5.55556 8.66528 8.66528 5.55556 12.5 5.55556ZM12.5 8.33333C11.3949 8.33333 10.3351 8.77232 9.55372 9.55372C8.77232 10.3351 8.33333 11.3949 8.33333 12.5C8.33333 13.6051 8.77232 14.6649 9.55372 15.4463C10.3351 16.2277 11.3949 16.6667 12.5 16.6667C13.6051 16.6667 14.6649 16.2277 15.4463 15.4463C16.2277 14.6649 16.6667 13.6051 16.6667 12.5C16.6667 11.3949 16.2277 10.3351 15.4463 9.55372C14.6649 8.77232 13.6051 8.33333 12.5 8.33333Z" fill="#304481" class="svg-hover"></path>
                </svg>