<svg width="30" height="25" viewBox="0 0 30 25" fill="none" xmlns="http://www.w3.org/2000/svg">
                <path d="M29.9925 2.88469C28.8891 3.375 27.7041 3.70594 26.4581 3.85313C27.7284 3.09188 28.7044 1.88625 29.1647 0.45C27.975 1.15406 26.6587 1.66781 25.2572 1.9425C24.1341 0.747188 22.5347 0 20.7638 0C17.3653 0 14.6119 2.75437 14.6119 6.15281C14.6119 6.63469 14.6653 7.10531 14.7703 7.55531C9.65625 7.29844 5.1225 4.84875 2.08687 1.12594C1.55812 2.03531 1.25437 3.09188 1.25437 4.21969C1.25437 6.35531 2.34094 8.23781 3.99094 9.34219C2.98312 9.30937 2.03437 9.03375 1.20469 8.5725C1.20375 8.59781 1.20375 8.625 1.20375 8.64937C1.20375 11.6316 3.32437 14.1188 6.13969 14.6841C5.62406 14.8238 5.08031 14.8997 4.51875 14.8997C4.12125 14.8997 3.73687 14.8612 3.36187 14.79C4.14375 17.2331 6.41719 19.0125 9.10875 19.0631C7.00406 20.7131 4.35094 21.6984 1.46812 21.6984C0.97125 21.6984 0.480937 21.6694 0 21.6122C2.7225 23.3559 5.95687 24.375 9.43219 24.375C20.7497 24.375 26.94 14.9991 26.94 6.86719C26.94 6.60094 26.9325 6.33469 26.9212 6.07031C28.1241 5.20313 29.1666 4.12031 29.9925 2.88469Z" fill="#304481" class="svg-hover"></path>
                </svg>