<svg width="38" height="20" viewBox="0 0 38 20" fill="none" xmlns="http://www.w3.org/2000/svg">
                <path d="M30.8553 9.89556C30.8553 9.89556 35.7489 3.42667 36.2353 1.38C36.3979 0.64889 36.042 0 35.1985 0C35.1985 0 32.3786 0 30.9526 0C29.9798 0 29.6239 0.620001 29.3321 1.17556C29.3321 1.17556 27.0367 5.70889 24.2439 8.49C23.3474 9.38889 23.1184 9.72 22.6234 9.72C22.2244 9.72 22.2663 9.48 22.2663 8.66889V1.56222C22.2663 0.566667 21.6838 0 20.7763 0L13.9703 0C13.4519 0 13.2093 0.408889 13.2093 0.78C13.2093 1.71667 14.8791 2.06444 14.8791 4.60222V9.83667C14.8791 10.89 14.7325 11.2989 14.1821 11.2989C12.7241 11.2989 9.2146 6.62889 7.27021 1.48111C6.87986 0.43 6.41808 0 5.31597 0L1.07009 0C0.45439 0 0 0.517777 0 1.07333C0 2.09667 1.32869 6.90333 6.54738 13.25C10.0483 17.52 14.8113 19.8644 18.9599 19.8644C21.488 19.8644 22.265 19.5189 22.265 18.5533V15.2778C22.265 14.4589 22.4596 14.1078 22.978 14.1078C23.5617 14.1078 24.5099 14.3278 26.916 16.4689C29.7704 18.9256 29.8837 20 31.439 20H36.2033C36.6897 20 37.1429 19.7444 37.1429 19.0133C37.1429 18.0478 35.7489 16.2978 33.61 14.25C32.7344 13.1978 31.3085 12.0444 30.8553 11.5178C30.2076 10.9033 30.4021 10.5389 30.8553 9.89556Z" fill="#304481" class="svg-hover"></path>
                </svg>