<svg width="36" height="25" viewBox="0 0 36 25" fill="none" xmlns="http://www.w3.org/2000/svg">
                <path d="M34.8125 3.91158C34.4035 2.37195 33.1987 1.15927 31.6689 0.747673C28.8962 2.94856e-07 17.7777 0 17.7777 0C17.7777 0 6.65926 2.94856e-07 3.88638 0.74775C2.35664 1.15935 1.15185 2.37195 0.742958 3.91166C-7.37141e-08 6.70239 0 12.5252 0 12.5252C0 12.5252 -7.37141e-08 18.3482 0.742958 21.1388C1.15185 22.6785 2.35664 23.8407 3.88638 24.2523C6.65926 25 17.7777 25 17.7777 25C17.7777 25 28.8962 25 31.6689 24.2522C33.1987 23.8406 34.4035 22.6784 34.8125 21.1387C35.5555 18.3481 35.5555 12.5252 35.5555 12.5252C35.5555 12.5252 35.5555 6.70239 34.8125 3.91158Z" fill="#304481" class="svg-hover"></path>
                <path d="M14.1406 17.8117V7.23828L23.4335 12.5251L14.1406 17.8117Z" fill="white"></path>
                </svg>